<?xml version="1.0" encoding="utf-8"?>
<!-- Generator: Adobe Illustrator 17.0.0, SVG Export Plug-In . SVG Version: 6.00 Build 0)  -->
<!DOCTYPE svg PUBLIC "-//W3C//DTD SVG 1.1//EN" "http://www.w3.org/Graphics/SVG/1.1/DTD/svg11.dtd">
<svg version="1.1" id="Github" xmlns="http://www.w3.org/2000/svg" xmlns:xlink="http://www.w3.org/1999/xlink" x="0px" y="0px"
	 width="27.375px" height="25px" viewBox="18.312 29.635 27.375 25" enable-background="new 18.312 29.635 27.375 25"
	 xml:space="preserve">
<path fill="#282828" d="M32,29.666c-7.559,0-13.688,6.128-13.688,13.688c0,4.664,2.334,8.781,5.897,11.252h5.937
	c0,0,0.007-1.567,0-2.641c-3.613,0.778-4.622-1.981-4.622-1.981c-0.66-1.32-1.32-1.981-1.32-1.981c-1.32-0.784,0-0.66,0-0.66
	c1.32,0,1.981,1.32,1.981,1.32c1.159,1.967,3.221,1.651,3.961,1.32c0-0.66,0.289-1.658,0.66-1.981
	c-2.884-0.325-5.284-1.981-5.284-5.282s0.663-3.961,1.323-4.622c-0.133-0.326-0.686-1.528,0.02-3.301c0,0,1.297,0,2.618,1.981
	c0.654-0.654,2.641-0.66,3.302-0.66c0.659,0,2.646,0.006,3.3,0.66c1.32-1.981,2.621-1.981,2.621-1.981
	c0.706,1.773,0.154,2.976,0.02,3.301c0.66,0.66,1.32,1.32,1.32,4.622s-2.397,4.957-5.282,5.282c0.372,0.322,0.66,1.458,0.66,1.981
	v4.622h0.001h4.366c3.562-2.471,5.897-6.588,5.897-11.252C45.688,35.794,39.559,29.666,32,29.666z"/>
</svg>
